<svg width="20" height="20" viewBox="0 0 20 20" fill="none" xmlns="http://www.w3.org/2000/svg">
<path d="M0.622295 18.8685L8.92483 0.875495C9.12073 0.458701 9.39581 0.179443 9.89596 0.179443H9.95014C10.4503 0.179443 10.7254 0.458701 10.9213 0.875495L19.1946 18.8143C19.278 18.981 19.3072 19.1186 19.3072 19.2603C19.3072 19.6229 19.0029 19.9271 18.6111 19.9271C18.2777 19.9271 18.0276 19.6771 17.8901 19.3728L15.6144 14.3754L9.89596 1.82578L1.87268 19.402C1.73513 19.7354 1.51007 19.9313 1.17664 19.9313C0.814028 19.9313 0.509766 19.6521 0.509766 19.3186C0.509766 19.2019 0.538937 19.0352 0.622295 18.8685Z" fill="black"/>
</svg>
