<svg width="11" height="12" viewBox="0 0 11 12" fill="none" xmlns="http://www.w3.org/2000/svg">
<path d="M0.741292 10.7348L5.28653 0.884472C5.39377 0.656298 5.54436 0.503418 5.81817 0.503418H5.84784C6.12165 0.503418 6.27224 0.656298 6.37948 0.884472L10.9087 10.7051C10.9544 10.7964 10.9704 10.8717 10.9704 10.9492C10.9704 11.1478 10.8038 11.3143 10.5893 11.3143C10.4068 11.3143 10.2699 11.1774 10.1946 11.0108L8.94873 8.27504L5.81817 1.40471L1.42582 11.0268C1.35052 11.2094 1.22731 11.3166 1.04477 11.3166C0.846256 11.3166 0.679688 11.1637 0.679688 10.9812C0.679688 10.9173 0.695657 10.826 0.741292 10.7348Z" fill="white"/>
</svg>
