<svg width="20" height="20" viewBox="0 0 20 20" fill="none" xmlns="http://www.w3.org/2000/svg">
<path d="M0.607416 18.8685L8.90994 0.875495C9.10583 0.458701 9.38093 0.179443 9.88108 0.179443H9.93526C10.4354 0.179443 10.7105 0.458701 10.9064 0.875495L19.1797 18.8143C19.2631 18.981 19.2923 19.1186 19.2923 19.2603C19.2923 19.6229 18.988 19.9271 18.5962 19.9271C18.2628 19.9271 18.0127 19.6771 17.8752 19.3728L15.5995 14.3754L9.88108 1.82578L1.8578 19.402C1.72026 19.7354 1.49518 19.9313 1.16175 19.9313C0.799135 19.9313 0.494873 19.6521 0.494873 19.3186C0.499041 19.2019 0.524057 19.0352 0.607416 18.8685Z" fill="#D5A368"/>
</svg>
