<svg width="8" height="12" viewBox="0 0 8 12" fill="none" xmlns="http://www.w3.org/2000/svg">
<path d="M0.294434 10.8329V0.982635C0.294434 0.770433 0.476983 0.587891 0.689185 0.587891H7.55951C7.75803 0.587891 7.92459 0.754459 7.92459 0.952971C7.92459 1.15148 7.75803 1.31805 7.55951 1.31805H1.08392V5.49821H6.87499C7.0735 5.49821 7.24006 5.66477 7.24006 5.86328C7.24006 6.06179 7.0735 6.22836 6.87499 6.22836H1.08392V10.4998H7.63482C7.83333 10.4998 7.99989 10.6664 7.99989 10.8649C7.99989 11.0634 7.83333 11.23 7.63482 11.23H0.686901C0.47698 11.23 0.294434 11.0474 0.294434 10.8329Z" fill="white"/>
</svg>
