<svg width="15" height="20" viewBox="0 0 15 20" fill="none" xmlns="http://www.w3.org/2000/svg">
<path d="M0.924805 19.0475V1.05455C0.924805 0.666936 1.25826 0.333496 1.64588 0.333496H14.1955C14.5581 0.333496 14.8624 0.637758 14.8624 1.00037C14.8624 1.36298 14.5581 1.66724 14.1955 1.66724H2.36692V9.30291H12.9451C13.3078 9.30291 13.612 9.60716 13.612 9.96977C13.612 10.3324 13.3078 10.6366 12.9451 10.6366H2.36692V18.439H14.3331C14.6957 18.439 14.9999 18.7433 14.9999 19.1059C14.9999 19.4685 14.6957 19.7728 14.3331 19.7728H1.6417C1.25825 19.7728 0.924805 19.4393 0.924805 19.0475Z" fill="#D5A368"/>
</svg>
