<svg width="11" height="12" viewBox="0 0 11 12" fill="none" xmlns="http://www.w3.org/2000/svg">
<path d="M0.840576 5.9385V5.90884C0.840576 3.03612 2.92381 0.405273 6.09999 0.405273C7.69493 0.405273 8.74453 0.845646 9.73253 1.59178C9.8238 1.66707 9.88541 1.77432 9.88541 1.91123C9.88541 2.12343 9.70287 2.30596 9.49066 2.30596C9.42906 2.30596 9.33779 2.2763 9.24652 2.19872C8.42509 1.55983 7.52836 1.11946 6.05436 1.11946C3.46914 1.11946 1.662 3.30765 1.662 5.87689V5.90884C1.662 8.66062 3.38016 10.7119 6.22321 10.7119C7.57628 10.7119 8.83809 10.1506 9.61388 9.49574V6.44048H6.30079C6.10228 6.44048 5.93571 6.27392 5.93571 6.07541C5.93571 5.8769 6.10228 5.71033 6.30079 5.71033H9.97896C10.1912 5.71033 10.3737 5.89286 10.3737 6.10507V9.58701C10.3737 9.73989 10.2665 9.90646 10.0999 10.0434C9.09592 10.8192 7.7748 11.4124 6.19355 11.4124C2.83254 11.4124 0.840576 8.93443 0.840576 5.9385Z" fill="white"/>
</svg>
