<svg width="18" height="21" viewBox="0 0 18 21" fill="none" xmlns="http://www.w3.org/2000/svg">
<path d="M0.17627 10.1073V10.0531C0.17627 4.80563 3.98159 0 9.78336 0C12.6968 0 14.614 0.804404 16.4187 2.16732C16.5854 2.30486 16.698 2.50077 16.698 2.75084C16.698 3.13846 16.3645 3.47189 15.9769 3.47189C15.8644 3.47189 15.6977 3.4177 15.531 3.27599C14.0305 2.10897 12.3925 1.30457 9.7 1.30457C4.97772 1.30457 1.67672 5.30161 1.67672 9.99471V10.0531C1.67672 15.0796 4.81518 18.8266 10.0084 18.8266C12.48 18.8266 14.7849 17.8013 16.202 16.6051V11.0242H10.1501C9.78753 11.0242 9.48327 10.7199 9.48327 10.3573C9.48327 9.99472 9.78753 9.69046 10.1501 9.69046H16.8689C17.2565 9.69046 17.5899 10.0239 17.5899 10.4115V16.7718C17.5899 17.051 17.394 17.3553 17.0898 17.6054C15.2559 19.0225 12.8426 20.1061 9.95425 20.1061C3.81488 20.1061 0.17627 15.5798 0.17627 10.1073Z" fill="#D5A368"/>
</svg>
