<svg width="25" height="30" viewBox="0 0 25 30" fill="none" xmlns="http://www.w3.org/2000/svg">
<path d="M16.3031 18.8426C16.2825 18.8221 16.2666 18.797 16.2483 18.7765C15.0846 19.5431 13.6927 19.9904 12.1959 19.9904C8.12301 19.9904 4.82133 16.6887 4.82133 12.6158C4.82133 8.54285 8.12301 5.24117 12.1959 5.24117C16.2688 5.24117 19.5705 8.54285 19.5705 12.6158C19.5705 14.1126 19.1233 15.5067 18.3566 16.6681C18.3794 16.6864 18.4023 16.7024 18.4228 16.7229L21.3708 19.6709C23.0935 17.4941 24.2207 15.0549 24.2207 12.1115C24.2207 5.4237 18.7993 0 12.1115 0C5.42371 0 0 5.42142 0 12.1115C0 16.011 2.07867 19.0663 4.70496 21.6948L12.2324 29.8156L19.3652 21.907L16.3031 18.8426Z" fill="#A6CD39"/>
<path d="M12.196 7.79639C9.53548 7.79639 7.37695 9.95492 7.37695 12.6154C7.37695 15.276 9.53548 17.4345 12.196 17.4345C14.8565 17.4345 17.015 15.2782 17.015 12.6154C17.015 9.95264 14.8588 7.79639 12.196 7.79639ZM13.8959 12.9258C12.8645 12.9258 12.0271 12.0883 12.0271 11.057C12.0271 10.0257 12.8645 9.18825 13.8959 9.18825C14.9272 9.18825 15.7646 10.0257 15.7646 11.057C15.7646 12.0883 14.9272 12.9258 13.8959 12.9258Z" fill="#A6CD39"/>
</svg>
