<svg width="11" height="12" viewBox="0 0 11 12" fill="none" xmlns="http://www.w3.org/2000/svg">
<path d="M0.397143 0.930382C0.397143 0.71818 0.579681 0.535645 0.791883 0.535645H0.867181C1.03375 0.535645 1.15696 0.626914 1.26192 0.763819L5.41242 6.87433L9.56291 0.763819C9.65418 0.626914 9.79109 0.535645 9.95765 0.535645H10.0329C10.2452 0.535645 10.4277 0.71818 10.4277 0.930382V10.8879C10.4277 11.1001 10.2452 11.2827 10.0329 11.2827C9.82075 11.2827 9.6382 11.1001 9.6382 10.8879V1.97999L5.73186 7.66381C5.64059 7.80072 5.53335 7.86232 5.39644 7.86232C5.25954 7.86232 5.1523 7.80072 5.06103 7.66381L1.15468 1.97999V10.9039C1.15468 11.1161 0.988113 11.2849 0.773629 11.2849C0.561427 11.2849 0.392578 11.1184 0.392578 10.9039V0.930382H0.397143Z" fill="white"/>
</svg>
