<svg width="19" height="20" viewBox="0 0 19 20" fill="none" xmlns="http://www.w3.org/2000/svg">
<path d="M0.0737673 0.958838C0.0737673 0.57122 0.407201 0.237793 0.794819 0.237793H0.932362C1.23662 0.237793 1.46169 0.404511 1.65341 0.654587L9.23489 11.8163L16.8164 0.654587C16.9831 0.404511 17.2332 0.237793 17.5374 0.237793H17.675C18.0626 0.237793 18.396 0.57122 18.396 0.958838V19.1477C18.396 19.5353 18.0626 19.8688 17.675 19.8688C17.2874 19.8688 16.9539 19.5353 16.9539 19.1477V2.87609L9.8184 13.2584C9.65169 13.5085 9.45579 13.621 9.20572 13.621C8.95564 13.621 8.75975 13.5085 8.59303 13.2584L1.45752 2.87609V19.1769C1.45752 19.5645 1.15326 19.8729 0.761475 19.8729C0.373856 19.8729 0.0654297 19.5687 0.0654297 19.1769V0.958838H0.0737673Z" fill="black"/>
</svg>
