<svg width="16" height="20" viewBox="0 0 16 20" fill="none" xmlns="http://www.w3.org/2000/svg">
<path d="M0.428977 1.0006C0.428977 0.612981 0.762416 0.279541 1.15003 0.279541H8.58981C10.978 0.279541 12.8953 1.02977 14.0581 2.1968C14.9751 3.11374 15.5294 4.41831 15.5294 5.80623V5.86042C15.5294 9.10724 13.112 10.9703 9.83602 11.4121L15.3627 18.5768C15.5002 18.7435 15.5836 18.9102 15.5836 19.0769C15.5836 19.4646 15.221 19.8272 14.8334 19.8272C14.5541 19.8272 14.3624 19.6605 14.1957 19.4396L8.22718 11.6664H1.86692V19.1061C1.86692 19.4937 1.53348 19.8272 1.14586 19.8272C0.758244 19.8272 0.424805 19.4937 0.424805 19.1061V1.0006H0.428977ZM8.42725 10.3576C11.6741 10.3576 14.0915 8.71962 14.0915 5.9146V5.86042C14.0915 3.25129 12.0367 1.61329 8.51061 1.61329H1.87525V10.3618H8.42725V10.3576Z" fill="black"/>
</svg>
