<svg width="9" height="12" viewBox="0 0 9 12" fill="none" xmlns="http://www.w3.org/2000/svg">
<path d="M0.226893 0.95285C0.226893 0.740648 0.409435 0.558105 0.621638 0.558105H4.69455C6.00199 0.558105 7.05159 0.968821 7.6882 1.60771C8.19019 2.10969 8.49366 2.82388 8.49366 3.5837V3.61336C8.49366 5.39084 7.17024 6.41079 5.37679 6.65265L8.40239 10.575C8.47769 10.6662 8.52332 10.7575 8.52332 10.8488C8.52332 11.061 8.3248 11.2595 8.1126 11.2595C7.95973 11.2595 7.85477 11.1682 7.7635 11.0473L4.49604 6.79183H1.0141V10.8647C1.0141 11.077 0.831556 11.2595 0.619354 11.2595C0.407151 11.2595 0.224609 11.077 0.224609 10.8647V0.95285H0.226893ZM4.60556 6.07537C6.38304 6.07537 7.70645 5.17864 7.70645 3.64303V3.61336C7.70645 2.18499 6.58156 1.28827 4.6512 1.28827H1.01866V6.07765H4.60556V6.07537Z" fill="white"/>
</svg>
