<svg width="8" height="12" viewBox="0 0 8 12" fill="none" xmlns="http://www.w3.org/2000/svg">
<path d="M0.248091 9.89028C0.172794 9.82868 0.0952148 9.72371 0.0952148 9.58681C0.0952148 9.37461 0.277757 9.19207 0.489959 9.19207C0.597201 9.19207 0.688469 9.23771 0.747794 9.28334C1.81109 10.2417 2.87666 10.6661 4.3347 10.6661C5.92964 10.6661 7.02488 9.76935 7.02488 8.55318V8.52352C7.02488 7.39862 6.43162 6.74604 4.01525 6.25774C1.46198 5.73979 0.428351 4.87501 0.428351 3.2641V3.23443C0.428351 1.65318 1.8727 0.437012 3.84869 0.437012C5.27706 0.437012 6.26505 0.802095 7.23936 1.53225C7.31465 1.59386 7.40593 1.69882 7.40593 1.8517C7.40593 2.0639 7.22338 2.24644 7.01118 2.24644C6.91991 2.24644 6.82865 2.21677 6.75335 2.15517C5.82696 1.44098 4.89829 1.1512 3.81902 1.1512C2.25375 1.1512 1.22012 2.04793 1.22012 3.15685V3.18652C1.22012 4.31142 1.7974 4.99594 4.32101 5.51162C6.78301 6.0136 7.81664 6.89435 7.81664 8.44594V8.4756C7.81664 10.1938 6.34263 11.378 4.28906 11.378C2.6964 11.3803 1.45057 10.8783 0.248091 9.89028Z" fill="white"/>
</svg>
