<svg width="15" height="21" viewBox="0 0 15 21" fill="none" xmlns="http://www.w3.org/2000/svg">
<path d="M0.534866 17.3269C0.397324 17.2143 0.255615 17.0226 0.255615 16.7725C0.255615 16.3849 0.589055 16.0515 0.976673 16.0515C1.17257 16.0515 1.33928 16.1348 1.44765 16.2182C3.38991 17.9687 5.33633 18.744 7.99965 18.744C10.913 18.744 12.9136 17.106 12.9136 14.8844V14.8303C12.9136 12.7755 11.83 11.5834 7.41614 10.6915C2.75221 9.74537 0.864137 8.16573 0.864137 5.22316V5.16898C0.864137 2.2806 3.50244 0.059082 7.11188 0.059082C9.72101 0.059082 11.5257 0.72596 13.3054 2.0597C13.443 2.17223 13.6097 2.36396 13.6097 2.64321C13.6097 3.03083 13.2763 3.36427 12.8886 3.36427C12.7219 3.36427 12.5552 3.31007 12.4177 3.19754C10.7255 1.89297 9.02913 1.36365 7.05769 1.36365C4.19849 1.36365 2.31041 3.00165 2.31041 5.02727V5.08146C2.31041 7.13625 3.3649 8.38663 7.97464 9.32859C12.4718 10.2455 14.3599 11.8544 14.3599 14.6885V14.7427C14.3599 17.8812 11.6674 20.0444 7.91629 20.0444C5.00707 20.0485 2.73137 19.1316 0.534866 17.3269Z" fill="black"/>
</svg>
