<svg width="22" height="23" viewBox="0 0 22 23" fill="none" xmlns="http://www.w3.org/2000/svg">
<path fill-rule="evenodd" clip-rule="evenodd" d="M11.3347 0.972656C8.43774 0.972656 8.07418 0.985323 6.93639 1.0371C5.80082 1.0891 5.0257 1.26888 4.34747 1.53266C3.64591 1.80511 3.05079 2.16956 2.4579 2.76268C1.86456 3.35557 1.50011 3.95069 1.22678 4.65203C0.962329 5.33048 0.782327 6.10582 0.731215 7.24094C0.680326 8.37873 0.666992 8.74251 0.666992 11.6394C0.666992 14.5364 0.679881 14.8988 0.731437 16.0366C0.78366 17.1722 0.96344 17.9473 1.227 18.6255C1.49967 19.3271 1.86412 19.9222 2.45723 20.5151C3.04991 21.1084 3.64502 21.4738 4.34614 21.7462C5.02482 22.01 5.80016 22.1898 6.9355 22.2418C8.07329 22.2935 8.43663 22.3062 11.3333 22.3062C14.2305 22.3062 14.5929 22.2935 15.7307 22.2418C16.8663 22.1898 17.6423 22.01 18.321 21.7462C19.0223 21.4738 19.6165 21.1084 20.2092 20.5151C20.8025 19.9222 21.167 19.3271 21.4403 18.6257C21.7025 17.9473 21.8825 17.1719 21.9359 16.0368C21.987 14.899 22.0003 14.5364 22.0003 11.6394C22.0003 8.74251 21.987 8.37896 21.9359 7.24117C21.8825 6.1056 21.7025 5.33048 21.4403 4.65225C21.167 3.95069 20.8025 3.35557 20.2092 2.76268C19.6159 2.16934 19.0225 1.80489 18.3203 1.53266C17.6403 1.26888 16.8647 1.0891 15.7291 1.0371C14.5914 0.985323 14.2291 0.972656 11.3313 0.972656H11.3347ZM10.3778 2.8949C10.6618 2.89445 10.9787 2.8949 11.3347 2.8949C14.1828 2.8949 14.5203 2.90512 15.645 2.95623C16.685 3.00379 17.2495 3.17757 17.6255 3.32357C18.1232 3.5169 18.4781 3.74802 18.8512 4.12135C19.2246 4.49469 19.4557 4.85025 19.6495 5.34803C19.7955 5.72359 19.9695 6.28804 20.0168 7.32805C20.0679 8.45251 20.079 8.79029 20.079 11.637C20.079 14.4837 20.0679 14.8215 20.0168 15.9459C19.9693 16.9859 19.7955 17.5504 19.6495 17.9259C19.4561 18.4237 19.2246 18.7782 18.8512 19.1513C18.4779 19.5246 18.1235 19.7557 17.6255 19.9491C17.2499 20.0957 16.685 20.2691 15.645 20.3166C14.5205 20.3677 14.1828 20.3789 11.3347 20.3789C8.48648 20.3789 8.14892 20.3677 7.02446 20.3166C5.98445 20.2686 5.42 20.0949 5.04377 19.9489C4.54599 19.7555 4.19043 19.5244 3.81709 19.1511C3.44376 18.7777 3.21264 18.4231 3.01886 17.9251C2.87286 17.5495 2.69886 16.985 2.65153 15.945C2.60041 14.8206 2.59019 14.4828 2.59019 11.6343C2.59019 8.78585 2.60041 8.44984 2.65153 7.32539C2.69908 6.28538 2.87286 5.72093 3.01886 5.34492C3.2122 4.84714 3.44376 4.49158 3.81709 4.11824C4.19043 3.7449 4.54599 3.51379 5.04377 3.32001C5.41978 3.17334 5.98445 3.00001 7.02446 2.95223C8.00847 2.90779 8.38981 2.89445 10.3778 2.89223V2.8949ZM17.0284 4.66583C16.3217 4.66583 15.7484 5.2385 15.7484 5.9454C15.7484 6.65208 16.3217 7.22541 17.0284 7.22541C17.7351 7.22541 18.3084 6.65208 18.3084 5.9454C18.3084 5.23873 17.7351 4.66539 17.0284 4.66539V4.66583ZM11.3345 6.16148C8.30935 6.16148 5.85665 8.61417 5.85665 11.6393C5.85665 14.6645 8.30935 17.116 11.3345 17.116C14.3596 17.116 16.8114 14.6645 16.8114 11.6393C16.8114 8.61417 14.3594 6.16148 11.3343 6.16148H11.3345ZM11.3347 8.08391C13.2983 8.08391 14.8903 9.67571 14.8903 11.6395C14.8903 13.6031 13.2983 15.1951 11.3347 15.1951C9.37088 15.1951 7.77909 13.6031 7.77909 11.6395C7.77909 9.67571 9.37088 8.08391 11.3347 8.08391Z" fill="white"/>
</svg>
