<svg width="20" height="16" viewBox="0 0 20 16" fill="none" xmlns="http://www.w3.org/2000/svg">
<path fill-rule="evenodd" clip-rule="evenodd" d="M9.7345 4.25625L9.77647 4.9483L9.07699 4.86355C6.53088 4.53872 4.30654 3.43709 2.41794 1.58693L1.49463 0.668914L1.25681 1.34684C0.753184 2.85804 1.07494 4.45398 2.12416 5.52735C2.68375 6.12053 2.55784 6.20528 1.59256 5.85219C1.25681 5.7392 0.963027 5.65446 0.935048 5.69683C0.837121 5.7957 1.17287 7.08092 1.43867 7.58937C1.8024 8.29553 2.54385 8.98758 3.35525 9.39716L4.04074 9.72199L3.22934 9.73612C2.44592 9.73612 2.41794 9.75024 2.50188 10.0468C2.78167 10.9649 3.88685 11.9394 5.11793 12.3631L5.98529 12.6597L5.22985 13.1116C4.11068 13.7613 2.79566 14.1285 1.48064 14.1567C0.851111 14.1709 0.333496 14.2273 0.333496 14.2697C0.333496 14.411 2.04023 15.2019 3.03349 15.5126C6.01327 16.4306 9.55263 16.0351 12.2107 14.4674C14.0992 13.3517 15.9878 11.1343 16.8692 8.98758C17.3448 7.84359 17.8205 5.75333 17.8205 4.75057C17.8205 4.10089 17.8624 4.01615 18.6459 3.23937C19.1075 2.78742 19.5412 2.2931 19.6251 2.15187C19.765 1.88352 19.751 1.88352 19.0376 2.12362C17.8485 2.54732 17.6806 2.49083 18.2681 1.85528C18.7018 1.40333 19.2194 0.584174 19.2194 0.344077C19.2194 0.301707 19.0096 0.372324 18.7718 0.499434C18.52 0.640668 17.9604 0.852518 17.5407 0.979629L16.7852 1.21973L16.0998 0.753655C15.722 0.499434 15.1904 0.216967 14.9106 0.132227C14.1972 -0.0655006 13.106 -0.0372539 12.4625 0.18872C10.7138 0.824272 9.60859 2.46258 9.7345 4.25625Z" fill="white"/>
</svg>
